<svg width="100" height="100" viewBox="0 0 100 100" fill="none" xmlns="http://www.w3.org/2000/svg">
<path d="M47.5 92C47.5 95.0376 45.0376 97.5 42 97.5C38.9624 97.5 36.5 95.0376 36.5 92C36.5 88.9624 38.9624 86.5 42 86.5C45.0376 86.5 47.5 88.9624 47.5 92Z" stroke="#191919" stroke-width="5"/>
<path d="M86.6875 92C86.6875 95.0376 84.2251 97.5 81.1875 97.5C78.1499 97.5 75.6875 95.0376 75.6875 92C75.6875 88.9624 78.1499 86.5 81.1875 86.5C84.2251 86.5 86.6875 88.9624 86.6875 92Z" stroke="#191919" stroke-width="5"/>
<path d="M96.5825 17.8579H22.6127L19.878 2.85787C19.7221 2.03903 19.303 1.30466 18.6936 0.782612C18.0843 0.260559 17.3232 -0.0161232 16.543 0.000726568H3.20312V3.57215V7.14358H13.8084L26.548 75.715C26.7039 76.5339 27.123 77.2682 27.7324 77.7903C28.3417 78.3123 29.1028 78.589 29.883 78.5722H93.2476V71.4293H32.6176L29.883 57.1436H89.9126C90.6835 57.1638 91.4371 56.8972 92.0452 56.3893C92.6532 55.8814 93.0781 55.1635 93.2476 54.3579L99.9175 22.215C100.029 21.6851 100.027 21.1349 99.9099 20.6062C99.7932 20.0775 99.5653 19.5843 99.2437 19.1642C98.9221 18.744 98.5153 18.408 98.0541 18.1816C97.593 17.9552 97.0897 17.8445 96.5825 17.8579ZM87.2446 50.0007H28.6157L23.9467 25.0007H92.4138L87.2446 50.0007Z" fill="#191919"/>
<rect width="12.2269" height="7.14286" rx="3.57143" fill="#191919"/>
<rect x="38.9062" y="29.7676" width="38.419" height="5.71429" rx="2.85714" fill="#191919"/>
<rect x="43.8047" y="39.5273" width="28.6225" height="5.71429" rx="2.85714" fill="#191919"/>
<path d="M89.1875 75.0031C89.1875 73.0306 90.7865 71.4316 92.7589 71.4316H93.5116C95.4841 71.4316 97.0831 73.0306 97.0831 75.0031V75.0031C97.0831 76.9755 95.4841 78.5745 93.5116 78.5745H92.7589C90.7865 78.5745 89.1875 76.9755 89.1875 75.0031V75.0031Z" fill="#191919"/>
</svg>
