<svg width="75" height="75" viewBox="0 0 75 75" fill="none" xmlns="http://www.w3.org/2000/svg">
<g clip-path="url(#clip0_1075_2154)">
<path d="M21.75 0H53.25C65.25 0 75 9.75 75 21.75V53.25C75 59.0185 72.7085 64.5507 68.6296 68.6296C64.5507 72.7085 59.0185 75 53.25 75H21.75C9.75 75 0 65.25 0 53.25V21.75C0 15.9815 2.29151 10.4493 6.37043 6.37043C10.4493 2.29151 15.9815 0 21.75 0M21 7.5C17.4196 7.5 13.9858 8.92232 11.4541 11.4541C8.92232 13.9858 7.5 17.4196 7.5 21V54C7.5 61.4625 13.5375 67.5 21 67.5H54C57.5804 67.5 61.0142 66.0777 63.5459 63.5459C66.0777 61.0142 67.5 57.5804 67.5 54V21C67.5 13.5375 61.4625 7.5 54 7.5H21ZM57.1875 13.125C58.4307 13.125 59.623 13.6189 60.5021 14.4979C61.3811 15.377 61.875 16.5693 61.875 17.8125C61.875 19.0557 61.3811 20.248 60.5021 21.1271C59.623 22.0061 58.4307 22.5 57.1875 22.5C55.9443 22.5 54.752 22.0061 53.8729 21.1271C52.9939 20.248 52.5 19.0557 52.5 17.8125C52.5 16.5693 52.9939 15.377 53.8729 14.4979C54.752 13.6189 55.9443 13.125 57.1875 13.125ZM37.5 18.75C42.4728 18.75 47.2419 20.7254 50.7583 24.2417C54.2746 27.7581 56.25 32.5272 56.25 37.5C56.25 42.4728 54.2746 47.2419 50.7583 50.7583C47.2419 54.2746 42.4728 56.25 37.5 56.25C32.5272 56.25 27.7581 54.2746 24.2417 50.7583C20.7254 47.2419 18.75 42.4728 18.75 37.5C18.75 32.5272 20.7254 27.7581 24.2417 24.2417C27.7581 20.7254 32.5272 18.75 37.5 18.75M37.5 26.25C34.5163 26.25 31.6548 27.4353 29.545 29.545C27.4353 31.6548 26.25 34.5163 26.25 37.5C26.25 40.4837 27.4353 43.3452 29.545 45.455C31.6548 47.5647 34.5163 48.75 37.5 48.75C40.4837 48.75 43.3452 47.5647 45.455 45.455C47.5647 43.3452 48.75 40.4837 48.75 37.5C48.75 34.5163 47.5647 31.6548 45.455 29.545C43.3452 27.4353 40.4837 26.25 37.5 26.25Z" fill="#191919"/>
</g>
<defs>
<clipPath id="clip0_1075_2154">
<rect width="75" height="75" fill="white"/>
</clipPath>
</defs>
</svg>
